<?xml version="1.0" standalone="no"?>
<!DOCTYPE svg PUBLIC "-//W3C//DTD SVG 20010904//EN"
 "http://www.w3.org/TR/2001/REC-SVG-20010904/DTD/svg10.dtd">
<svg version="1.0" xmlns="http://www.w3.org/2000/svg"
 width="1024.000000pt" height="1024.000000pt" viewBox="0 0 1024.000000 1024.000000"
 preserveAspectRatio="xMidYMid meet">

<g transform="translate(0.000000,1024.000000) scale(0.100000,-0.100000)"
fill="#000000" stroke="none">
<path d="M0 9098 l0 -1141 258 7 c141 3 1886 5 3877 4 1991 -2 3964 -2 4385
-1 421 2 808 2 860 0 197 -5 637 -2 695 5 l60 7 2 -189 c1 -150 -1 -190 -12
-190 -26 0 -88 32 -173 89 -100 67 -112 74 -112 68 0 -2 19 -17 43 -32 23 -15
71 -48 106 -73 l64 -45 -34 -16 c-19 -9 -81 -38 -139 -63 -189 -84 -451 -204
-665 -306 -115 -54 -227 -105 -247 -113 l-38 -13 0 -1813 c0 -1014 -4 -1813
-9 -1813 -4 0 -20 9 -35 21 -14 11 -31 17 -37 13 -6 -3 -37 6 -69 21 -55 26
-58 30 -65 72 -3 24 -14 51 -23 61 -40 39 -61 114 -67 228 -6 147 -20 975 -19
1179 1 316 4 444 21 830 11 262 13 458 8 670 -15 653 -15 678 -1 732 8 29 12
54 9 56 -2 3 18 7 46 8 28 2 51 0 51 -4 0 -5 5 -5 10 -2 6 4 10 -7 10 -24 0
-17 5 -31 10 -31 6 0 10 24 10 53 0 28 3 63 7 76 6 23 8 24 81 17 43 -3 79
-11 84 -19 6 -9 8 -8 9 3 1 8 1 18 1 21 -1 7 212 129 450 256 49 25 86 48 84
50 -4 4 -262 -131 -411 -215 -49 -27 -99 -53 -110 -56 -31 -9 -81 27 -101 73
-18 42 -34 53 -34 26 0 -9 -5 -21 -10 -28 -6 -7 -18 -22 -28 -34 -17 -20 -29
-22 -178 -27 -87 -3 -1808 -6 -3823 -6 -3465 0 -3665 1 -3690 17 -14 10 -28
17 -31 16 -3 -1 -29 -11 -59 -22 -30 -11 -59 -18 -64 -14 -6 4 -8 0 -4 -10 5
-14 2 -15 -21 -7 -25 10 -26 9 -8 -5 11 -8 23 -15 28 -15 4 0 9 -66 11 -147
l3 -148 2 148 2 147 69 0 70 0 12 -56 c10 -42 15 -52 22 -39 5 9 7 34 5 56
l-4 39 93 0 c51 0 94 -1 95 -2 2 -2 5 -640 8 -1418 5 -1344 6 -1417 23 -1445
10 -16 15 -21 11 -10 -4 11 -9 35 -12 53 -3 25 -1 32 12 32 10 0 14 5 10 11
-8 13 -14 2334 -6 2592 l5 187 3549 -2 c1951 -2 3548 -6 3548 -10 0 -5 13 -8
29 -8 24 0 31 -6 40 -31 8 -23 11 -465 10 -1528 -1 -1628 -6 -2032 -26 -2039
-7 -2 -13 -16 -13 -30 0 -15 -5 -43 -10 -63 -9 -31 -16 -37 -61 -51 -28 -9
-58 -14 -67 -11 -11 5 -14 2 -9 -10 3 -9 3 -17 -2 -17 -17 0 -21 185 -23 1134
l-3 981 -5 -805 c-3 -443 -7 -758 -10 -700 l-6 105 -2 -107 c-2 -91 -4 -106
-17 -102 -12 5 -15 -4 -17 -47 l-1 -54 -7 65 c-4 36 -8 52 -9 35 -15 -163 -19
125 -17 1350 l1 1429 40 23 40 22 6 -27 c7 -27 7 -27 8 4 1 27 -12 44 -89 119
-49 49 -100 103 -112 121 l-22 32 -40 -15 c-35 -12 -446 -15 -3021 -18 -1639
-2 -3006 -1 -3038 2 -36 4 -71 14 -92 29 l-34 23 -83 -78 c-128 -119 -164
-151 -177 -151 -28 0 -7 -28 29 -39 77 -23 70 93 70 -1232 l0 -1189 -20 0
c-12 0 -31 7 -43 15 -21 14 -24 24 -26 112 -2 54 -4 132 -6 174 -1 42 -5 81
-9 87 -4 7 -2 12 3 12 6 0 11 18 11 40 0 22 -4 40 -10 40 -5 0 -11 37 -13 83
-1 45 -4 -63 -5 -240 l-2 -322 -25 25 c-48 48 -175 86 -175 53 0 -6 16 -58 36
-115 25 -75 39 -138 48 -227 15 -137 41 -216 110 -337 24 -41 51 -93 60 -115
10 -22 24 -50 32 -63 l15 -22 39 31 c38 31 40 31 87 20 26 -7 82 -31 123 -53
135 -74 146 -78 231 -88 46 -5 281 -10 522 -10 284 0 437 -3 437 -10 0 -5 5
-10 11 -10 8 0 8 5 -1 15 -8 10 -30 15 -61 15 l-49 0 0 41 c0 41 0 41 31 35
17 -3 42 -6 55 -6 20 0 25 -6 30 -40 l7 -40 291 -2 c326 -2 718 1 756 6 14 1
19 1 12 -1 -9 -3 -12 -15 -10 -34 l4 -29 -133 2 c-76 0 -133 5 -133 10 0 6 51
8 125 6 107 -3 125 -1 123 12 -3 12 -24 15 -116 16 -141 0 -157 -7 -149 -75 3
-25 9 -57 13 -71 7 -22 6 -23 -8 -12 -9 7 -19 24 -23 39 -3 14 -8 23 -10 21
-3 -2 0 -21 6 -41 10 -35 12 -37 52 -36 32 1 36 3 18 8 -25 7 464 5 582 -3 37
-2 74 -9 81 -15 8 -7 16 -34 18 -60 3 -44 1 -49 -22 -58 -15 -5 -322 -10 -738
-11 -393 -1 -718 -4 -723 -8 -5 -3 -86 -2 -179 2 l-170 7 -1 31 c-2 27 -2 28
-6 6 -3 -14 -10 -28 -17 -32 -6 -4 -200 -6 -431 -5 -231 1 -411 3 -400 4 148
15 162 21 108 42 -25 9 -23 10 18 7 25 -2 52 -6 59 -11 8 -5 11 -3 8 6 -6 17
-111 35 -268 46 -69 5 -126 9 -127 8 -8 -3 54 -175 71 -193 32 -35 172 -101
251 -117 39 -8 149 -19 245 -25 305 -20 556 -67 617 -117 10 -8 13 -12 8 -9
-26 12 -169 -29 -347 -100 -183 -73 -409 -154 -429 -154 -18 0 -8 27 35 90 60
91 108 136 169 159 56 21 53 29 -4 10 -71 -24 -147 -105 -221 -236 -20 -36
-38 -55 -60 -62 -114 -40 -231 35 -304 194 -65 144 -124 306 -195 540 -131
429 -160 502 -227 571 -67 69 -186 142 -242 150 -27 4 -48 10 -45 13 2 4 -22
4 -53 0 -31 -4 -68 -8 -80 -8 l-24 -1 4 1480 c2 1195 1 1480 -10 1480 -7 0
-45 16 -85 37 -130 66 -384 177 -707 310 -47 19 -102 44 -122 54 l-38 19 0
-849 c0 -801 1 -850 18 -855 9 -2 57 -7 107 -11 50 -3 105 -9 123 -12 l32 -5
0 -1263 0 -1263 -57 -23 c-83 -32 -210 -97 -218 -109 -15 -24 5 -20 66 13 35
19 89 43 119 53 30 10 70 29 89 41 19 12 37 21 39 19 2 -2 -1 -21 -7 -43 -7
-25 -11 -273 -11 -739 0 -519 -3 -710 -12 -735 l-12 -34 -7 35 c-8 34 -17 495
-23 1108 -2 160 -5 295 -8 298 -6 5 -97 -34 -188 -81 l-45 -24 -3 -90 c-1 -50
-1 -91 1 -91 3 0 35 11 71 25 71 27 106 31 106 14 0 -18 -24 -36 -101 -74 -83
-42 -85 -43 -77 -51 3 -3 39 9 78 26 115 48 103 18 -20 -53 l-55 -32 -3 -213
c-3 -184 -1 -212 12 -212 8 0 18 4 21 10 3 6 14 10 23 9 11 0 12 -2 4 -6 -6
-2 -10 -9 -6 -14 3 -5 -3 -9 -12 -9 -10 0 -14 -3 -11 -7 4 -3 18 0 32 7 48 25
36 2 -14 -29 l-51 -31 0 -75 0 -75 68 45 c93 62 102 67 102 56 0 -5 -38 -33
-85 -62 l-85 -52 0 -448 c0 -303 3 -449 10 -449 15 0 50 23 160 105 52 39 138
100 190 134 52 35 104 72 116 82 27 25 42 24 19 -1 -24 -26 -11 -25 28 2 17
12 38 23 47 23 8 1 28 2 43 3 16 1 26 5 24 10 -3 4 7 8 21 9 39 3 218 30 277
41 28 6 84 15 125 22 41 6 89 15 105 20 17 5 61 12 99 15 38 4 80 11 95 17 14
5 58 16 96 23 39 7 138 29 220 49 174 41 251 45 318 16 43 -19 49 -19 109 -5
47 11 104 14 230 11 92 -2 172 -7 177 -11 6 -3 48 -8 93 -10 51 -3 75 -1 63 4
-17 7 -15 9 15 12 29 3 35 8 35 27 0 19 -13 31 -65 58 -105 56 -104 59 18 56
97 -3 381 10 522 23 407 38 747 54 1235 57 355 2 528 -18 880 -100 173 -40
356 -82 375 -86 8 -2 22 -5 30 -9 8 -3 53 -17 100 -31 47 -14 122 -37 167 -51
45 -14 89 -25 98 -25 8 0 15 -5 15 -11 0 -6 6 -9 14 -6 8 3 20 -1 27 -10 27
-32 56 -34 87 -5 16 15 49 37 73 50 27 14 34 16 19 5 -13 -10 -48 -38 -78 -62
-44 -35 -56 -41 -64 -30 -8 11 -9 10 -4 -4 3 -10 6 -21 6 -23 0 -2 8 -4 17 -4
9 0 32 -5 50 -12 26 -10 42 -9 76 0 67 21 172 23 279 7 55 -9 104 -18 109 -20
4 -3 50 -8 101 -11 51 -3 144 -12 206 -20 62 -8 138 -15 170 -14 31 1 86 -4
122 -11 68 -12 112 -15 195 -10 28 1 79 -1 113 -5 45 -5 66 -3 71 5 5 8 46 12
127 12 116 1 208 15 252 38 14 8 22 8 22 1 0 -16 30 -12 37 5 3 9 32 29 64 45
51 26 58 28 61 12 3 -12 8 -8 21 17 21 43 22 41 -10 41 -15 0 -57 11 -93 24
-36 13 -86 27 -112 31 -27 3 -48 10 -48 14 0 7 -92 29 -142 34 -10 1 -18 4
-18 8 0 4 -11 10 -24 13 -27 7 -42 38 -29 58 11 18 53 19 53 2 0 -8 11 -14 26
-14 14 0 33 -4 42 -9 9 -4 42 -11 72 -14 34 -3 47 -2 35 3 -28 12 88 17 280
12 56 -2 75 -5 65 -12 -13 -8 -13 -10 2 -10 11 0 15 -5 12 -15 -3 -7 6 -29 20
-48 21 -28 39 -37 92 -50 37 -9 70 -14 75 -11 5 3 7 -1 4 -8 -4 -10 9 -13 52
-13 116 -1 151 -16 223 -93 54 -58 123 -112 142 -112 3 0 5 14 5 32 0 18 5 34
11 36 18 6 14 30 -5 42 -15 8 -12 9 12 5 l30 -5 -28 12 c-16 7 -25 18 -23 25
3 7 0 13 -7 13 -7 0 -26 13 -44 28 -49 43 -173 132 -184 132 -5 0 -9 21 -9 48
l0 47 27 -35 c51 -68 159 -165 218 -197 50 -26 161 -63 191 -63 5 0 -7 8 -26
19 -19 10 -41 16 -49 13 -9 -3 -12 -1 -8 5 5 7 -1 9 -15 5 -13 -3 -19 -1 -15
5 4 7 0 9 -11 6 -11 -2 -25 3 -33 14 -13 17 -13 17 4 4 21 -17 35 -7 18 13 -7
8 -10 19 -7 25 4 5 -3 13 -15 16 -19 6 -19 8 -3 19 16 12 15 13 -4 18 -12 4
-25 14 -29 24 -4 11 -24 36 -45 58 -51 50 -44 70 7 22 41 -37 132 -79 150 -68
6 4 2 8 -8 10 -17 3 -18 17 -15 187 2 101 6 178 10 172 4 -7 6 61 4 151 -3
119 -1 162 8 159 13 -4 19 -535 6 -607 -6 -30 -5 -49 3 -59 7 -8 11 -17 9 -20
-2 -3 0 -7 5 -8 4 -2 8 150 8 337 0 187 3 340 7 340 37 0 37 -3 38 -323 1
-324 6 -382 30 -382 13 0 15 47 18 315 3 324 1 355 -21 363 -6 2 -3 3 8 1 50
-9 237 -34 298 -39 l67 -7 0 -335 0 -335 95 3 c52 2 98 -1 102 -6 5 -4 3 -5
-3 -2 -8 4 -11 -16 -10 -66 1 -62 4 -73 21 -81 18 -8 19 -9 2 -13 -14 -4 -15
-8 -7 -18 7 -8 7 -15 1 -19 -5 -4 -2 -27 10 -58 10 -29 19 -54 19 -55 0 -2 19
-3 43 -3 44 0 75 -20 241 -160 60 -51 65 -58 65 -97 1 -23 -1 -47 -4 -55 -4
-11 -862 -13 -5075 -12 l-5070 1 0 -254 c0 -239 1 -253 18 -253 11 0 27 -9 36
-19 15 -16 16 -31 10 -104 l-7 -86 -28 6 -29 6 0 -157 0 -156 5120 0 5120 0 0
5120 0 5120 -5120 0 -5120 0 0 -1142z m2208 -95 l82 -6 0 -93 0 -94 -37 0
c-21 1 -57 5 -80 9 l-43 8 0 -46 0 -46 79 3 c93 4 93 4 84 -98 l-6 -71 -79 3
-78 3 0 -38 0 -38 115 3 c70 2 115 -1 115 -7 0 -5 -8 -45 -17 -89 l-17 -79
-90 7 c-49 3 -136 6 -194 6 l-105 0 5 323 c2 177 7 328 12 335 8 13 118 16
254 5z m738 -63 c-3 -36 -6 -77 -6 -92 l0 -28 -100 0 -100 0 0 -45 0 -46 90 2
c50 1 93 -1 96 -3 2 -3 1 -37 -2 -77 -8 -83 -11 -85 -118 -79 l-66 3 0 -38 0
-39 120 4 c90 2 120 0 120 -9 0 -7 -8 -47 -17 -89 l-17 -77 -74 7 c-41 3 -131
6 -199 6 l-123 0 0 328 c0 181 2 331 4 333 2 2 93 4 201 4 l197 0 -6 -65z
m1954 -276 l0 -335 -97 3 -98 3 -3 325 c-1 179 -1 329 2 335 2 6 41 9 100 7
l96 -3 0 -335z m663 313 c47 -20 109 -86 138 -146 32 -65 34 -250 4 -329 -39
-106 -110 -163 -228 -182 -113 -18 -209 12 -284 87 -58 57 -77 124 -77 268 0
115 13 164 63 233 61 87 260 122 384 69z m-2149 -9 c3 -18 5 -127 5 -242 0
-114 3 -211 6 -214 3 -4 54 -7 112 -7 l105 0 -6 -90 c-4 -49 -8 -90 -9 -92 -2
-1 -32 2 -67 7 -36 5 -127 10 -202 10 l-138 0 0 278 c0 152 3 301 6 330 l7 52
87 0 88 0 6 -32z m877 6 c63 -29 116 -78 147 -138 25 -48 27 -59 27 -181 0
-123 -1 -132 -27 -175 -35 -60 -73 -94 -133 -121 -45 -20 -71 -23 -242 -27
l-193 -5 0 305 c0 168 3 320 6 338 l7 32 181 -4 c157 -3 187 -6 227 -24z
m2042 20 l37 -7 0 -78 0 -78 -35 -6 c-19 -3 -50 -7 -69 -10 -85 -13 -133 -135
-88 -225 19 -40 61 -59 131 -59 35 -1 42 -4 37 -17 -3 -9 -6 -57 -6 -108 l0
-92 -75 7 c-134 13 -240 80 -292 187 -25 51 -28 68 -28 157 0 83 4 108 23 150
62 135 204 205 365 179z m340 -4 l37 0 -2 -327 -3 -328 -96 -3 -97 -3 -3 28
c-2 15 -3 164 -1 330 l3 302 27 4 c15 3 43 3 62 1 19 -2 52 -4 73 -4z m793
-23 c72 -45 108 -110 124 -224 27 -201 -50 -365 -191 -407 -62 -19 -171 -21
-234 -5 -59 15 -127 76 -161 144 -22 46 -27 73 -32 163 -9 195 39 285 183 345
32 14 64 17 155 14 104 -3 119 -6 156 -30z m884 -294 c0 -181 -4 -333 -8 -339
-4 -7 -69 -13 -174 -17 l-166 -5 5 217 c3 119 3 213 -1 210 -3 -3 -11 -102
-17 -220 -10 -200 -15 -242 -26 -211 -3 8 -32 12 -95 12 l-91 0 5 326 c4 263
8 328 19 335 8 5 49 9 92 9 76 0 77 0 77 -25 0 -25 1 -25 85 -25 l85 0 0 30 0
30 105 0 105 0 0 -327z m-5190 -1907 c0 -48 -4 -65 -15 -70 -8 -3 -15 -1 -15
3 0 5 -16 8 -35 7 -19 -1 -35 3 -36 9 0 5 -3 4 -6 -2 -2 -7 -9 -13 -14 -13 -6
0 -8 4 -5 8 2 4 -61 8 -141 9 -90 1 -141 -2 -132 -8 9 -6 -6 -8 -43 -8 -32 1
-58 6 -58 12 0 5 -7 4 -16 -4 -9 -7 -18 -9 -22 -3 -8 10 -98 11 -122 1 -17 -7
-70 -5 -70 3 0 3 -12 6 -26 6 -14 1 -23 -1 -19 -4 3 -3 -3 -11 -14 -17 -15 -7
-18 -14 -11 -25 7 -10 10 -11 10 -2 0 7 13 12 30 12 l30 0 0 -60 0 -60 -35 0
c-32 0 -35 -3 -34 -27 1 -17 3 -21 6 -10 3 11 14 17 34 17 19 0 28 -4 23 -11
-3 -6 -3 -85 1 -175 l7 -164 25 0 c21 0 23 2 10 14 -10 11 -14 34 -12 83 2 37
3 110 4 161 l1 93 28 -3 27 -3 6 -120 c4 -66 7 -144 8 -172 l1 -53 38 1 c20 1
28 4 17 6 -19 4 -20 12 -20 156 1 84 -3 162 -7 175 -7 21 -5 22 42 22 l50 0 1
-127 c0 -71 0 -152 -1 -180 -1 -32 3 -53 9 -53 12 0 13 18 11 229 -1 120 1
133 15 127 9 -3 25 -6 36 -6 18 0 19 -8 16 -175 -3 -160 -2 -175 14 -175 9 0
17 6 16 13 0 6 1 119 1 250 l2 237 35 0 35 0 2 -77 c6 -233 4 -409 -6 -415 -6
-4 3 -8 19 -8 l30 0 -3 115 c-3 114 -3 115 20 116 l23 2 -22 4 c-20 4 -23 10
-23 58 0 47 3 54 22 57 35 5 34 28 -1 28 -29 0 -31 3 -31 35 0 31 3 35 25 35
18 0 26 7 31 25 16 63 22 8 22 -202 0 -134 4 -238 10 -253 8 -18 11 42 11 222
l1 248 24 6 c13 3 34 4 46 2 l22 -3 2 -245 1 -245 28 -3 27 -3 0 180 0 181 33
1 c26 0 28 2 12 8 -11 5 -26 6 -33 3 -9 -3 -12 3 -8 24 2 16 5 44 5 62 1 27 5
32 25 32 22 0 23 -4 29 -77 3 -43 9 -89 12 -103 3 -14 6 -89 7 -167 1 -79 4
-143 8 -143 3 0 26 29 50 65 97 141 107 155 114 147 4 -4 6 -2 5 3 -5 13 25
84 45 110 15 19 15 19 16 -12 0 -18 -4 -33 -9 -33 -5 0 -15 -20 -22 -45 -7
-25 -16 -45 -20 -45 -4 0 -9 -10 -12 -21 -18 -69 60 77 84 156 9 33 18 51 18
40 1 -19 1 -19 16 1 8 12 19 43 25 70 17 75 27 81 87 51 29 -13 35 -7 24 29
-9 34 -4 54 14 54 21 0 26 -16 16 -42 -5 -13 -12 -36 -16 -52 -5 -23 -8 -27
-16 -15 -7 12 -9 11 -9 -3 0 -11 -8 -18 -20 -18 -13 0 -20 -7 -20 -18 0 -10
-13 -46 -30 -80 -16 -34 -30 -64 -30 -66 0 -3 -20 -39 -45 -80 -52 -89 -58
-107 -14 -48 17 23 32 42 35 42 4 0 -26 -67 -56 -128 -23 -44 -50 -58 -95 -49
-14 2 -28 0 -31 -4 -3 -5 133 -9 305 -9 l311 0 1 68 c1 37 1 133 0 214 -1 155
8 209 33 188 12 -9 17 -7 26 9 26 50 30 16 23 -229 -6 -242 -6 -250 13 -250
18 0 19 10 21 163 2 171 2 169 1 220 -1 17 1 49 4 69 4 24 2 39 -5 42 -7 2 1
5 16 5 24 1 26 -2 18 -17 -6 -11 -6 -23 -2 -28 5 -5 5 -37 2 -72 -4 -34 -3
-68 1 -75 4 -7 5 -79 3 -162 -3 -108 -2 -140 5 -115 6 19 10 90 10 157 1 76 5
125 11 129 8 5 10 -40 8 -149 -2 -85 -1 -153 4 -150 4 2 7 47 7 99 0 71 3 94
13 94 10 0 13 -13 11 -46 -1 -25 1 -65 6 -87 5 -30 8 5 10 123 1 91 4 178 6
194 3 16 2 36 -2 45 -9 18 -20 -58 -25 -159 -2 -43 -5 -22 -8 65 -4 82 -2 133
4 137 5 4 21 7 35 7 23 0 23 -1 5 -9 -19 -8 -19 -9 3 -9 22 -1 22 -3 22 -138
0 -76 3 -182 7 -236 l6 -98 236 1 c130 1 242 1 249 0 7 0 12 -13 12 -30 l0
-30 -1130 0 -1130 0 0 -65 c0 -55 -3 -65 -17 -65 -17 -1 -17 -1 0 -14 15 -12
17 -32 16 -174 0 -89 2 -166 6 -172 9 -15 132 -13 138 3 3 9 224 12 1061 12
l1057 0 -3 -38 -3 -38 -910 0 c-500 0 -986 -3 -1080 -8 -148 -7 -328 -2 -339
10 -4 4 -11 500 -7 526 0 6 18 14 39 16 22 2 11 4 -30 5 l-68 2 0 291 c0 260
-2 290 -15 279 -21 -17 -30 -6 -10 13 9 9 15 33 15 60 0 24 3 47 7 50 3 4 195
7 425 7 l418 0 0 -64z m3719 -73 c13 -29 14 -56 2 -49 -5 3 -5 -12 1 -36 5
-26 5 -43 -1 -47 -5 -3 -13 -24 -17 -46 -6 -32 -9 -36 -14 -20 -4 11 -5 25 -2
30 3 6 -6 0 -19 -11 -39 -34 -69 -47 -116 -46 -81 2 -133 44 -134 111 l-1 46
-8 -35 c-5 -19 -10 -102 -12 -185 l-3 -150 -26 -3 -26 -3 -6 227 c-4 125 -4
231 -1 235 3 5 88 8 189 7 183 -1 183 -1 194 -25z m-4258 -13 c29 0 29 -1 29
-55 l0 -55 -47 0 -48 0 3 61 c3 49 7 59 19 55 8 -3 28 -6 44 -6z m129 -50 l0
-60 -41 0 c-41 0 -41 0 -35 31 3 17 6 44 6 60 0 26 3 29 35 29 l35 0 0 -60z
m1370 -16 c0 -47 -4 -73 -10 -69 -5 3 -10 37 -10 76 0 39 4 69 10 69 6 0 10
-32 10 -76z m2358 -149 l-3 -225 546 0 547 0 6 -22 c3 -13 6 -38 6 -56 l0 -33
-47 6 c-27 4 -87 7 -135 8 -49 1 -88 5 -88 9 0 3 -425 6 -945 7 -742 0 -945
-2 -945 -12 0 -9 -2 -9 -9 1 -8 14 -139 13 -454 -4 l-138 -7 3 49 3 49 648 3
c484 1 646 5 641 14 -4 6 -8 96 -10 200 l-2 188 31 0 32 0 -3 -200 -3 -200
132 0 131 0 -2 188 c-3 252 -3 250 18 255 44 12 43 18 40 -218z m-3958 171 c0
-24 3 -51 6 -60 5 -13 -1 -16 -31 -16 -30 0 -36 3 -31 16 3 9 6 36 6 60 0 40
2 44 25 44 23 0 25 -4 25 -44z m3880 -181 c0 -175 -2 -195 -17 -195 -9 0 -13
3 -10 7 4 3 -4 21 -18 39 -23 30 -25 40 -27 180 l-3 149 30 6 c17 4 33 7 38 8
4 0 7 -87 7 -194z m-154 163 c-3 -13 -6 -31 -6 -41 0 -11 -5 -15 -11 -11 -8 4
-8 1 -1 -12 13 -24 23 -274 11 -274 -4 0 -6 -7 -3 -15 5 -11 -1 -15 -18 -15
-24 0 -26 4 -31 68 -4 37 -7 124 -7 195 l0 127 36 0 c33 0 36 -2 30 -22z
m-2543 -35 c-7 -2 -21 -2 -30 0 -10 3 -4 5 12 5 17 0 24 -2 18 -5z m2594 -195
c-2 -18 -4 -4 -4 32 0 36 2 50 4 33 2 -18 2 -48 0 -65z m1233 -331 l0 -62 -44
3 c-48 4 -56 15 -56 78 0 40 5 44 57 44 l43 0 0 -63z m-2077 44 c17 -6 19 -24
19 -226 l1 -220 7 165 c4 91 8 189 9 218 1 37 5 52 15 52 30 0 41 -32 41 -124
0 -50 1 -144 3 -208 l2 -118 31 0 c31 0 31 0 25 43 -3 23 -8 102 -12 175 l-7
134 29 -4 29 -3 6 -115 c4 -63 7 -141 8 -172 1 -56 2 -58 27 -58 l26 0 -7 235
c-7 213 -6 235 9 235 19 0 17 20 25 -254 l6 -220 56 -4 57 -3 -9 43 c-4 24
-15 70 -23 103 -9 32 -17 80 -17 105 -2 44 -2 44 -8 10 -6 -34 -7 -34 -19 25
-7 33 -14 89 -15 125 l-2 65 35 0 35 0 15 -95 c9 -52 28 -142 43 -200 14 -58
29 -122 32 -142 5 -34 9 -38 37 -38 35 0 35 -8 -11 120 -36 96 -81 252 -80
272 0 7 5 0 11 -15 8 -23 15 -28 34 -23 16 4 26 1 33 -11 8 -14 10 -15 11 -3
0 18 37 43 50 35 14 -8 13 -85 -1 -85 -6 0 -18 8 -27 17 -16 15 -17 15 -20 0
-2 -9 8 -42 21 -74 14 -32 35 -85 48 -118 27 -73 66 -128 82 -118 7 4 20 6 30
5 21 -4 20 -8 2 148 -8 69 -16 143 -17 165 -5 66 -22 61 -29 -8 l-6 -62 1 65
1 65 38 3 37 3 0 -53 c0 -47 17 -177 36 -290 6 -36 8 -38 46 -38 33 0 38 3 34
18 -43 137 -86 313 -86 348 0 8 5 14 11 14 11 0 54 -90 129 -267 l43 -103 206
0 c113 0 324 -3 468 -7 238 -5 263 -4 269 11 3 9 13 16 22 16 8 0 12 3 9 7 -9
9 13 34 24 27 5 -3 9 7 9 23 0 22 2 25 10 13 8 -13 10 -12 10 3 0 10 4 16 9
13 4 -3 11 43 15 102 4 59 8 113 8 120 1 7 16 12 40 12 l38 0 0 -208 0 -208
-1332 -3 c-733 -1 -1341 1 -1350 4 -12 5 -18 18 -18 36 l0 29 210 0 210 0 0
235 0 235 30 0 30 0 1 -232 c0 -160 4 -224 10 -203 5 17 9 116 9 220 -1 105
-1 196 -1 203 1 6 14 12 30 12 l29 0 7 -116 c4 -64 5 -163 3 -220 -5 -104 -5
-104 19 -104 20 0 23 5 23 40 0 22 -4 40 -10 40 -6 0 -10 36 -10 88 0 114 11
282 19 281 3 0 14 -4 24 -8z m4014 -463 c-2 -24 -4 -5 -4 42 0 47 2 66 4 43 2
-24 2 -62 0 -85z m367 -10 c-19 -35 -49 -91 -65 -124 -34 -69 -65 -108 -80
-99 -18 12 -38 63 -42 108 l-3 46 28 -15 c36 -18 78 -35 78 -30 0 2 -17 14
-37 26 -34 21 -36 23 -18 31 13 5 15 8 5 8 -11 1 -12 3 -3 9 8 5 9 13 3 22
-17 26 -11 32 25 26 27 -5 37 -3 41 8 3 9 10 14 14 11 5 -3 16 2 24 11 9 8 16
12 16 8 0 -5 5 -3 12 4 7 7 18 12 25 12 8 0 0 -23 -23 -62z m-6796 -123 c2 -2
6 -113 9 -249 l6 -246 34 0 33 0 0 185 0 185 -29 0 c-24 0 -29 5 -35 31 -7 35
-7 120 0 103 3 -6 17 -10 32 -8 15 2 19 1 10 -2 -22 -7 -23 -33 -2 -41 10 -4
14 -13 10 -27 -3 -12 -1 -28 4 -36 7 -10 10 4 10 48 0 50 3 62 16 62 14 0 15
-18 13 -137 -2 -76 -2 -189 -1 -250 l2 -113 26 0 c22 0 25 4 24 28 -1 15 -2
93 -1 175 l1 147 24 0 c24 0 24 -1 25 -117 0 -65 4 -144 7 -175 6 -53 8 -57
30 -56 20 2 24 8 24 35 0 18 5 33 10 33 6 0 10 -14 10 -32 0 -35 7 -34 14 3 2
13 9 23 15 21 6 -1 11 7 11 18 0 14 -7 20 -22 20 -25 0 -25 0 -28 120 l-2 65
-13 -55 c-12 -53 -13 -48 -14 106 -1 137 1 161 14 161 9 0 15 -10 15 -24 0
-12 5 -23 10 -23 6 0 9 3 9 8 -5 30 3 42 27 42 l27 0 -7 -117 c-5 -109 -10
-324 -7 -365 1 -13 10 -18 32 -18 l30 0 -2 170 c-1 94 1 174 5 177 12 13 5 23
-16 23 -13 0 -18 3 -12 8 6 4 14 31 17 61 4 29 9 56 12 59 15 15 25 -22 29
-103 3 -50 8 -117 11 -150 8 -76 13 -246 7 -262 -3 -10 -96 -13 -417 -13
l-414 0 2 190 2 190 29 0 29 0 -7 -175 -7 -175 31 0 30 0 0 170 c0 129 3 170
13 170 9 0 13 -33 14 -123 2 -67 5 -141 8 -164 6 -39 9 -43 34 -43 25 0 27 3
26 42 -1 23 -6 43 -13 46 -15 5 -17 402 -2 402 6 0 10 -69 10 -187 0 -121 3
-184 10 -177 5 5 11 54 12 109 3 84 6 100 20 103 23 4 29 -50 26 -216 l-3
-132 25 0 25 0 -3 175 -3 175 33 2 33 1 -32 4 -33 4 0 74 0 75 33 -7 c17 -3
33 -7 35 -8z m-108 -65 c0 -68 -1 -70 -25 -70 -24 0 -25 2 -25 70 0 68 1 70
25 70 24 0 25 -2 25 -70z m322 5 c-4 -65 -4 -65 -34 -65 -23 0 -29 4 -24 16 3
9 6 38 6 65 0 47 1 49 28 49 l27 0 -3 -65z m-522 -10 l0 -65 -35 0 -35 0 0 65
0 65 35 0 35 0 0 -65z m80 -6 c0 -56 -1 -59 -25 -59 -24 0 -24 2 -18 48 13 99
43 107 43 11z m4530 41 l0 -30 -182 -1 c-101 -1 -222 -3 -270 -5 l-88 -3 0 35
0 34 270 0 270 0 0 -30z m2127 -67 c-3 -10 -5 -4 -5 12 0 17 2 24 5 18 2 -7 2
-21 0 -30z m318 17 c-20 -23 -29 -21 -19 4 3 9 13 16 22 16 13 0 12 -3 -3 -20z
m65 16 c0 -2 -8 -10 -17 -17 -16 -13 -17 -12 -4 4 13 16 21 21 21 13z m-383
-318 c-1 -46 -3 -9 -3 82 0 91 2 128 3 83 2 -46 2 -120 0 -165z m-6370 70 c-2
-24 -4 -5 -4 42 0 47 2 66 4 43 2 -24 2 -62 0 -85z m13 -68 c0 -5 -7 -10 -15
-10 -8 0 -15 5 -15 10 0 6 7 10 15 10 8 0 15 -4 15 -10z m6357 -172 c-2 -13
-4 -3 -4 22 0 25 2 35 4 23 2 -13 2 -33 0 -45z m-5737 3 c160 -5 186 -8 145
-15 -31 -6 -153 -5 -315 1 -146 6 -386 9 -535 6 -483 -8 -775 -8 -775 -1 0 13
1137 20 1480 9z m219 -343 c-1 -189 -5 -386 -9 -438 -4 -60 -7 67 -8 343 -1
273 2 437 8 437 6 0 10 -129 9 -342z m3459 175 l-2 -168 -6 157 -5 157 -856 2
c-471 1 -861 -1 -868 -5 -6 -4 -11 -1 -11 8 0 14 89 16 875 16 l875 0 -2 -167z
m-5129 -435 l1 -347 98 -4 97 -3 -106 -2 -105 -2 -1 463 c0 288 2 421 7 352 4
-60 8 -266 9 -457z m3450 347 c-1 -71 -1 -257 0 -412 l1 -282 38 -4 37 -4 -41
-1 c-35 -2 -43 1 -48 21 -3 12 -5 216 -5 452 1 279 4 418 10 395 5 -19 9 -93
8 -165z m-2524 45 c4 -6 10 -8 14 -6 12 8 134 -45 157 -68 11 -11 29 -26 39
-32 10 -6 26 -25 34 -42 9 -17 23 -33 31 -35 8 -2 27 -35 41 -73 25 -66 26
-72 15 -157 -6 -49 -14 -86 -18 -82 -4 4 -4 -2 -2 -12 4 -14 -2 -23 -20 -31
-14 -6 -26 -17 -26 -24 0 -15 -51 -52 -93 -67 -41 -16 -222 -13 -292 4 -33 8
-74 14 -91 15 -17 0 -37 7 -44 15 -7 8 -21 15 -31 15 -11 0 -19 5 -19 10 0 6
-9 10 -21 10 -11 0 -37 17 -57 38 l-37 37 0 110 c0 98 3 115 24 153 14 23 31
42 38 42 7 0 13 4 13 8 0 14 45 62 58 62 7 0 11 6 10 12 -4 17 99 67 182 89
78 21 87 22 95 9z m3360 -20 c4 -6 10 -8 14 -6 22 14 177 -57 165 -75 -3 -5 4
-9 15 -9 12 0 21 -4 21 -9 0 -5 20 -34 45 -66 53 -69 70 -134 60 -236 -6 -61
-11 -73 -47 -114 -22 -25 -48 -45 -58 -45 -10 0 -20 -4 -22 -10 -1 -5 -28 -14
-57 -20 -30 -6 -58 -15 -61 -21 -9 -13 -238 0 -302 18 -10 2 -18 10 -18 16 0
7 -27 20 -60 30 -40 11 -65 25 -76 42 -9 14 -22 25 -29 25 -21 0 -28 54 -20
151 6 81 10 92 36 119 16 15 29 32 29 37 0 15 87 93 104 93 9 0 16 4 16 10 0
14 84 60 111 60 13 0 31 5 39 10 20 13 87 13 95 0z m832 -287 c-2 -21 -4 -6
-4 32 0 39 2 55 4 38 2 -18 2 -50 0 -70z m20 -305 c-1 -73 -3 -14 -3 132 0
146 2 205 3 133 2 -73 2 -193 0 -265z m-2798 -193 c0 -153 -5 -265 -10 -265
-5 0 -9 7 -9 15 0 8 -6 15 -12 16 -45 3 -99 0 -126 -6 -33 -7 -47 10 -14 18
15 4 15 5 0 6 -9 0 -24 -6 -33 -15 -15 -16 -16 -16 -13 2 3 16 -4 19 -52 20
-76 2 -108 -4 -113 -24 -3 -9 -5 99 -6 241 l-1 257 195 0 196 0 -2 -265z
m-2609 25 c4 -8 10 -59 13 -113 l7 -98 -33 25 c-42 32 -152 82 -200 91 l-37 7
0 67 c0 36 -3 83 -6 103 l-7 38 128 -53 c70 -28 130 -59 135 -67z m2770 106
c0 -3 -4 -8 -10 -11 -5 -3 -10 -1 -10 4 0 6 5 11 10 11 6 0 10 -2 10 -4z
m-1480 -15 c22 -7 20 -9 -20 -15 -25 -4 -61 -6 -80 -3 -26 3 -19 5 25 7 l60 3
-60 7 -60 7 55 0 c30 1 66 -2 80 -6z m1886 -9 c6 -4 16 -36 23 -72 19 -97 34
-125 80 -151 23 -12 41 -28 41 -35 0 -7 -12 -27 -27 -44 -23 -28 -32 -31 -62
-27 l-36 4 4 -78 3 -78 -37 -7 c-30 -5 -205 2 -212 9 -1 2 -5 59 -9 128 -6
104 -4 134 10 176 16 49 54 94 89 106 13 5 16 13 11 31 -6 26 -2 29 66 39 42
7 45 7 56 -1z m2994 -87 c0 -52 -3 -95 -7 -95 -5 0 -48 -5 -98 -10 -107 -13
-161 -36 -285 -121 -83 -56 -106 -79 -80 -79 6 0 10 -5 10 -11 0 -8 -5 -7 -15
1 -27 22 -28 3 -2 -32 27 -36 51 -80 61 -115 7 -21 3 -22 -51 -26 l-58 -3 65
-2 c104 -3 112 -7 108 -56 l-3 -41 -75 3 c-78 3 -92 -7 -20 -14 23 -2 60 -9
81 -14 22 -6 45 -7 52 -3 6 4 109 10 227 14 l215 5 -195 2 -195 2 -13 41 c-7
22 -10 44 -7 49 10 17 -15 93 -51 154 l-35 59 88 -7 c48 -3 178 -9 288 -12
141 -4 203 -9 210 -18 10 -13 202 -107 243 -120 31 -10 42 -43 42 -128 0 -68
-8 -90 -12 -35 -2 27 -18 27 -18 0 0 -12 -10 -14 -50 -11 -38 2 -50 0 -50 -11
0 -12 -3 -11 -17 1 -12 10 -25 13 -38 8 -11 -4 -23 -6 -27 -4 -17 10 -384 12
-398 3 -12 -8 -11 -9 5 -5 11 3 34 2 50 -3 19 -6 -60 -7 -205 -4 -129 3 -242
9 -251 14 -8 4 -37 50 -64 101 -26 51 -60 111 -75 133 -28 41 -70 84 -70 71 0
-3 -21 4 -47 17 -60 30 -136 44 -283 52 -136 8 -276 -12 -355 -50 -111 -54
-222 -182 -285 -330 -118 -278 -196 -415 -304 -532 -35 -37 -77 -90 -95 -118
-17 -27 -31 -43 -31 -36 0 23 22 56 80 116 69 72 150 190 183 265 13 30 44
100 68 155 24 55 50 106 57 114 13 14 52 86 52 96 0 3 -4 3 -10 0 -5 -3 -92
-7 -192 -8 -101 -1 -166 -3 -145 -5 20 -2 37 -7 37 -13 0 -5 17 -10 38 -10 32
-2 30 -3 -18 -10 -30 -5 -224 -11 -431 -14 -312 -5 -378 -3 -382 8 -7 19 9
101 29 139 33 66 104 123 104 84 0 -10 16 -17 47 -22 55 -8 992 3 1019 12 10
4 42 31 69 60 46 49 57 56 132 76 81 22 83 24 83 54 0 17 -9 57 -20 89 -11 33
-19 64 -17 69 4 12 47 -124 47 -147 0 -25 14 -28 92 -17 102 14 110 14 228 -4
107 -16 188 -38 226 -63 16 -10 47 -12 130 -7 l109 6 113 85 c148 112 148 113
167 224 l5 36 93 20 c139 31 127 38 127 -72z m-5307 58 c-51 -2 -135 -2 -185
0 -51 1 -10 3 92 3 102 0 143 -2 93 -3z m190 0 c-13 -2 -33 -2 -45 0 -13 2 -3
4 22 4 25 0 35 -2 23 -4z m515 0 c-53 -2 -143 -2 -200 0 -57 1 -13 3 97 3 110
0 156 -2 103 -3z m2245 0 c-13 -2 -33 -2 -45 0 -13 2 -3 4 22 4 25 0 35 -2 23
-4z m170 0 c-7 -2 -19 -2 -25 0 -7 3 -2 5 12 5 14 0 19 -2 13 -5z m440 0 c-72
-2 -194 -2 -270 0 -76 1 -16 3 132 3 149 0 211 -2 138 -3z m395 0 c-42 -2
-114 -2 -160 0 -46 1 -11 3 77 3 88 0 125 -2 83 -3z m-5497 -30 c13 -16 12
-17 -3 -4 -17 13 -22 21 -14 21 2 0 10 -8 17 -17z m2427 10 c-21 -2 -55 -2
-75 0 -21 2 -4 4 37 4 41 0 58 -2 38 -4z m-416 -10 c-149 -2 -395 -2 -545 0
-149 1 -27 2 273 2 300 0 422 -1 272 -2z m2526 0 c-10 -2 -26 -2 -35 0 -10 3
-2 5 17 5 19 0 27 -2 18 -5z m1000 0 c-175 -2 -461 -2 -635 0 -175 1 -32 2
317 2 349 0 492 -1 318 -2z m470 0 c-15 -2 -42 -2 -60 0 -18 2 -6 4 27 4 33 0
48 -2 33 -4z m79 -50 c-3 -2 -54 3 -114 13 -82 13 -146 16 -268 12 -121 -4
-145 -3 -100 4 33 5 153 7 268 4 191 -5 207 -4 208 12 1 9 4 4 6 -11 3 -16 2
-31 0 -34z m-4337 26 l75 -8 -90 5 c-49 2 -229 4 -400 5 -170 1 -330 4 -355 9
-60 10 674 0 770 -11z m720 12 c26 -5 -90 -8 -270 -7 -304 0 -308 0 -100 6
118 3 240 6 270 7 30 1 75 -2 100 -6z m130 -11 c-8 -6 -26 -9 -40 -8 l-25 1
25 4 c14 3 29 9 34 14 5 5 12 6 15 3 3 -3 -1 -9 -9 -14z m-733 4 c-3 -3 -12
-4 -19 -1 -8 3 -5 6 6 6 11 1 17 -2 13 -5z m3226 -1 c-123 -2 -323 -2 -445 0
-123 1 -23 2 222 2 245 0 345 -1 223 -2z m434 1 c-3 -3 -12 -4 -19 -1 -8 3 -5
6 6 6 11 1 17 -2 13 -5z m-5452 -80 c14 -23 25 -46 25 -51 0 -4 -12 12 -27 37
-14 25 -35 56 -47 70 l-21 25 22 -19 c13 -10 34 -38 48 -62z m1762 19 c-3 -10
-5 -4 -5 12 0 17 2 24 5 18 2 -7 2 -21 0 -30z m3270 20 c2 -6 -6 -13 -19 -16
-28 -8 -34 -2 -17 17 15 16 31 16 36 -1z m548 0 c5 -15 4 -16 -6 -5 -7 6 -32
12 -56 12 -38 0 -43 -3 -44 -22 0 -22 -1 -22 -9 -3 -14 33 -12 35 49 35 47 0
60 -4 66 -17z m-3908 -15 c-3 -8 -6 -5 -6 6 -1 11 2 17 5 13 3 -3 4 -12 1 -19z
m-1618 -148 c0 -8 -6 0 -14 19 -8 18 -15 36 -15 40 1 13 29 -45 29 -59z m5040
-77 c1 -23 -1 -23 -101 -21 -57 0 -89 3 -72 5 28 4 32 9 38 43 l6 39 58 3 c54
3 57 2 63 -22 4 -14 7 -35 8 -47z m-5020 17 c0 -10 -3 -8 -9 5 -12 27 -12 43
0 25 5 -8 9 -22 9 -30z m-465 -100 c18 -77 55 -194 146 -452 34 -98 58 -183
54 -189 -4 -7 -3 -9 3 -6 14 9 53 -95 46 -125 -3 -16 -2 -19 5 -10 7 10 18 -7
42 -65 36 -86 91 -246 86 -251 -4 -4 -81 156 -89 183 -3 11 -8 33 -11 48 -4
15 -11 25 -16 22 -6 -4 -7 1 -3 11 4 12 3 15 -6 10 -8 -5 -12 -3 -10 5 1 8 -5
31 -14 51 -10 21 -17 48 -17 60 0 13 -9 30 -19 38 -11 7 -18 17 -15 22 3 4 -3
22 -12 39 -8 17 -18 47 -20 67 -6 45 -14 58 -26 41 -5 -9 -6 -3 -2 16 4 24 3
27 -6 15 -10 -13 -11 -13 -6 2 7 22 -25 98 -41 98 -7 0 -13 8 -13 18 0 10 -3
22 -7 25 -7 8 -75 318 -77 355 0 12 -4 22 -8 22 -5 0 -8 10 -8 21 0 44 29 -2
44 -71z m5909 65 c-72 -13 -142 -28 -155 -35 -22 -11 -22 -10 -3 5 24 19 77
34 159 44 126 17 126 8 -1 -14z m-2385 -8 c6 -5 12 -20 12 -33 0 -19 5 -24 24
-24 26 0 38 -32 25 -66 -4 -10 -8 -14 -9 -9 -1 6 -6 1 -11 -10 -6 -14 -7 -8
-3 22 5 35 2 43 -14 52 -11 6 -34 8 -50 5 -17 -4 -32 -1 -36 5 -4 6 -3 11 3
11 6 0 7 7 4 17 -5 12 -3 14 8 8 12 -8 12 -6 0 8 -18 22 -31 12 -31 -24 0 -16
-5 -29 -12 -29 -8 0 -13 15 -14 40 0 25 4 39 10 37 6 -2 20 -1 31 3 21 8 42 3
63 -13z m-3041 -19 c-3 -8 -6 -5 -6 6 -1 11 2 17 5 13 3 -3 4 -12 1 -19z
m3091 -3 c-3 -3 -9 2 -12 12 -6 14 -5 15 5 6 7 -7 10 -15 7 -18z m1690 20 c-7
-7 -690 -7 -696 0 -3 3 154 5 348 5 194 0 351 -2 348 -5z m371 -12 c8 -17 3
-18 -77 -12 -48 3 -150 4 -226 2 -77 -2 -136 0 -133 4 4 3 98 9 210 13 111 4
205 7 209 8 4 1 12 -6 17 -15z m2880 -73 c-10 -40 -19 -82 -19 -92 0 -10 -5
-18 -11 -18 -5 0 -7 5 -4 10 3 6 0 10 -7 11 -10 0 -10 2 0 6 6 2 12 11 12 19
0 17 42 146 46 141 2 -1 -6 -36 -17 -77z m-3866 24 c40 3 176 7 302 10 l230 4
-205 -13 c-113 -7 -251 -14 -307 -14 l-103 -1 1 28 c2 24 2 25 6 4 4 -23 7
-23 76 -18z m35 29 c-16 -2 -40 -2 -55 0 -16 2 -3 4 27 4 30 0 43 -2 28 -4z
m4092 -68 c-24 -25 -46 -45 -49 -45 -3 0 15 20 39 45 24 25 46 45 49 45 3 0
-15 -20 -39 -45z m-4213 9 c-3 -3 -12 -4 -19 -1 -8 3 -5 6 6 6 11 1 17 -2 13
-5z m206 -1 c-35 -2 -91 -2 -125 0 -35 2 -7 3 62 3 69 0 97 -1 63 -3z m500 0
c-46 -2 -120 -2 -165 0 -46 1 -9 3 82 3 91 0 128 -2 83 -3z m-4744 -43 c0 -10
-3 -8 -9 5 -12 27 -12 43 0 25 5 -8 9 -22 9 -30z m30 -100 c0 -9 -4 -8 -9 5
-5 11 -9 27 -9 35 0 9 4 8 9 -5 5 -11 9 -27 9 -35z m538 -56 c-3 -3 -12 -4
-19 -1 -8 3 -5 6 6 6 11 1 17 -2 13 -5z m7448 -62 c-17 -15 -18 -15 -6 0 7 9
9 23 5 30 -6 10 -4 11 7 0 11 -10 10 -15 -6 -30z m143 -44 c29 -62 44 -167 22
-153 -6 3 -10 10 -10 15 0 5 -13 39 -30 75 -29 64 -39 125 -21 125 6 0 23 -28
39 -62z m-1888 -5 l25 -12 -27 0 c-42 -1 -56 8 -50 31 4 17 7 19 16 7 6 -8 22
-20 36 -26z m544 -13 c21 -21 -13 -25 -184 -21 -105 2 -167 6 -155 11 13 6
-16 10 -80 11 l-100 3 105 7 c141 9 401 2 414 -11z m1474 -75 c-44 -71 -77
-104 -38 -39 41 70 65 104 72 104 4 0 -11 -29 -34 -65z m-1419 11 c7 -8 11
-31 9 -52 -5 -60 -33 -65 -352 -65 -148 0 -271 3 -274 6 -3 3 29 5 72 5 42 0
75 4 72 9 -8 13 115 25 269 26 121 0 140 2 143 16 4 24 -25 29 -193 30 -82 1
-136 4 -120 6 17 2 50 6 75 10 l45 7 -40 7 c-23 3 29 7 121 8 129 1 164 -2
173 -13z m1346 -116 c3 -5 1 -10 -4 -10 -6 0 -11 5 -11 10 0 6 2 10 4 10 3 0
8 -4 11 -10z m-8039 -87 c-4 -4 -36 73 -35 85 0 4 9 -13 20 -37 11 -24 18 -46
15 -48z m6491 48 c-48 -3 -87 -9 -87 -13 0 -5 0 -15 0 -24 0 -15 11 -16 95
-11 92 5 94 5 92 -16 -2 -20 4 -22 46 -25 32 -2 47 -7 44 -15 -2 -7 -14 -11
-26 -10 -11 2 -21 -2 -21 -7 0 -6 5 -10 11 -10 5 0 7 -4 4 -10 -3 -5 0 -10 7
-11 7 -1 -3 -5 -22 -10 -19 -5 -102 -6 -185 -2 -149 6 -150 6 -100 20 28 7 86
12 133 11 72 -3 82 -1 82 15 0 15 -11 17 -87 17 -147 0 -373 13 -368 20 3 4
55 11 117 15 117 8 152 20 161 55 5 18 13 20 99 18 l93 -2 -88 -5z m-4187
-277 l0 -264 58 0 c31 0 52 4 45 8 -8 5 -13 75 -15 240 -3 201 -1 232 12 233
58 5 75 3 73 -8 -3 -13 -6 -226 -4 -277 1 -23 4 -26 14 -17 8 6 17 8 20 4 4
-3 7 60 7 140 l0 147 30 0 30 0 2 -232 3 -233 58 -3 57 -3 0 261 0 260 41 0
40 0 -2 -255 c-1 -140 1 -255 4 -255 4 0 24 0 45 0 l37 0 -3 230 -3 230 29 0
c27 0 30 -3 36 -42 3 -24 8 -113 11 -198 3 -85 8 -170 11 -187 l5 -33 117 0
c64 0 112 4 106 8 -7 4 -11 31 -10 62 l1 55 35 0 c32 0 35 -2 38 -34 5 -51 -5
-79 -31 -84 -12 -2 46 -5 128 -5 83 0 144 2 138 5 -7 2 -13 20 -13 39 0 20 4
33 9 30 5 -4 7 2 4 13 -6 25 11 35 27 16 7 -8 9 -15 5 -15 -4 0 -2 -7 6 -16
10 -13 10 -17 -2 -25 -10 -6 -10 -9 -1 -9 6 0 12 -6 12 -14 0 -8 -6 -17 -12
-19 -7 -3 7 -6 32 -6 l45 -1 -3 215 c-3 212 -3 215 17 215 21 0 21 -4 21 -215
l0 -215 71 0 c50 0 68 3 63 11 -8 13 -7 130 2 232 7 67 19 87 27 45 4 -19 5
-18 6 6 1 19 5 26 14 23 8 -3 14 3 14 15 2 15 -1 17 -11 9 -9 -8 -13 -7 -13 4
0 9 10 15 24 15 13 0 23 5 23 10 0 6 4 10 9 10 5 0 7 -81 3 -190 l-5 -190 239
-2 c218 -3 239 -5 242 -20 3 -17 -9 -18 -139 -18 -78 0 -140 -2 -138 -4 2 -2
59 -6 127 -7 67 -2 122 -7 122 -11 0 -4 -721 -8 -1602 -7 -882 0 -1596 3
-1588 6 41 15 87 39 104 55 16 14 37 18 102 18 57 0 84 4 87 13 3 6 6 2 6 -11
1 -19 3 -21 15 -10 8 7 10 15 5 16 -5 2 -9 20 -9 40 0 21 4 32 8 26 4 -8 51
-12 132 -13 99 -2 128 -5 142 -18 10 -9 18 -20 18 -25 0 -4 -61 -8 -137 -8
-75 0 -134 -2 -131 -5 3 -3 74 -7 159 -9 85 -3 163 -8 174 -12 20 -8 20 -8 1
21 -11 17 -77 101 -148 188 l-128 158 27 34 27 33 40 -45 c37 -41 246 -317
271 -357 7 -11 36 -19 89 -26 44 -6 82 -8 84 -5 3 3 6 121 8 262 1 142 3 259
3 261 1 1 57 2 126 1 l125 -1 0 -264z m4327 240 c-3 -3 -12 -4 -19 -1 -8 3 -5
6 6 6 11 1 17 -2 13 -5z m-3992 -26 l30 -3 3 -232 2 -233 -32 0 -33 0 0 222
c0 123 -4 234 -8 248 -5 14 -5 20 0 13 4 -6 22 -13 38 -15z m5270 -5 c28 -9
88 -22 135 -28 83 -12 83 -13 29 -14 -49 -1 -219 41 -219 55 0 6 -1 6 55 -13z
m-7886 -23 c11 -24 11 -24 -3 -6 -9 11 -16 24 -16 30 0 12 5 7 19 -24z m3900
-39 c17 -11 7 -61 -13 -61 -15 0 -27 35 -19 56 6 16 13 17 32 5z m4450 -7 c2
-2 -37 -4 -88 -4 -52 0 -90 4 -87 9 5 8 165 3 175 -5z m-8298 -36 c17 -24 18
-29 6 -19 -18 14 -42 51 -33 51 3 0 15 -15 27 -32z m3371 1 c-1 -13 -12 -33
-24 -46 -19 -21 -23 -21 -49 -7 -49 25 -34 68 26 77 44 6 50 2 47 -24z m345
15 c-3 -3 -12 -4 -19 -1 -8 3 -5 6 6 6 11 1 17 -2 13 -5z m3557 -29 c-28 -14
-57 -36 -64 -50 -12 -22 -11 -27 6 -47 l19 -22 -27 20 c-59 41 -42 81 47 108
72 21 77 19 19 -9z m-3577 9 c-3 -3 -12 -4 -19 -1 -8 3 -5 6 6 6 11 1 17 -2
13 -5z m-1837 -49 c0 -33 -2 -35 -35 -35 -28 0 -35 4 -35 19 0 20 35 51 57 51
8 0 13 -13 13 -35z m1840 25 c0 -5 -5 -10 -11 -10 -5 0 -7 5 -4 10 3 6 8 10
11 10 2 0 4 -4 4 -10z m3910 -15 c7 -9 8 -15 2 -15 -5 0 -12 7 -16 15 -3 8 -4
15 -2 15 2 0 9 -7 16 -15z m35 5 c3 -6 -1 -7 -9 -4 -18 7 -21 14 -7 14 6 0 13
-4 16 -10z m35 -85 c0 -5 5 -3 11 5 9 13 10 12 5 -2 -3 -10 0 -21 7 -25 7 -5
23 -21 37 -37 l25 -30 -26 20 c-36 27 -109 112 -109 127 0 14 49 -43 50 -58z
m-4742 25 c7 0 9 7 5 17 -4 11 -3 14 5 9 8 -4 11 -32 10 -74 l-1 -67 -7 55 -7
55 -1 -52 c-2 -49 -4 -53 -27 -53 -24 0 -25 3 -25 54 0 30 3 62 7 72 6 15 7
16 18 0 7 -9 17 -16 23 -16z m3629 -38 c7 -4 15 -22 19 -39 4 -22 2 -32 -10
-36 -18 -7 -21 -2 -30 51 -6 33 -1 38 21 24z m-4699 -9 c-10 -2 -28 -2 -40 0
-13 2 -5 4 17 4 22 1 32 -1 23 -4z m4666 -24 c3 -17 4 -34 2 -36 -2 -3 -110
-1 -240 3 l-236 7 0 26 0 26 234 4 233 3 7 -33z m-3395 -19 c0 -10 -3 -8 -9 5
-12 27 -12 43 0 25 5 -8 9 -22 9 -30z m-1244 10 c-11 -5 -29 -9 -40 -9 l-20 0
20 9 c11 5 29 9 40 9 l20 0 -20 -9z m5275 -42 c0 -13 -5 -30 -10 -38 -7 -11
-10 -5 -10 23 0 20 5 37 10 37 6 0 10 -10 10 -22z m630 2 c8 -5 11 -10 5 -10
-5 0 -17 5 -25 10 -8 5 -10 10 -5 10 6 0 17 -5 25 -10z m-5866 -26 c4 -9 1
-23 -5 -30 -15 -18 -18 -57 -4 -66 5 -4 0 -8 -12 -8 -15 0 -23 6 -23 18 0 9
-9 34 -20 55 -11 20 -20 39 -20 42 0 3 18 5 39 5 27 0 41 -5 45 -16z m4636
-12 c0 -11 -183 -22 -367 -22 -131 0 -155 4 -136 23 10 10 503 8 503 -1z
m-8152 -34 c-4 -30 -111 -89 -129 -71 -17 17 2 38 60 68 58 30 73 31 69 3z
m4507 6 c15 -15 15 -18 -2 -38 -10 -11 -11 -15 -3 -8 18 16 27 15 34 -3 4 -12
-3 -15 -29 -15 -34 0 -35 2 -33 33 3 51 8 56 33 31z m4443 -18 c22 -8 101 -22
174 -31 184 -23 208 -33 83 -36 -55 -1 -86 -4 -70 -6 17 -2 39 -8 50 -12 11
-5 41 -17 68 -28 30 -11 45 -23 42 -31 -3 -10 2 -12 18 -7 20 5 20 5 -3 -9
-24 -15 -24 -15 15 -10 28 4 36 3 26 -4 -11 -8 -10 -11 5 -15 43 -11 -79 -6
-196 8 -130 15 -212 35 -244 60 -18 13 -18 16 -2 40 9 14 21 25 27 25 6 0 7 5
4 10 -3 6 0 10 7 10 7 1 -4 10 -24 21 -60 31 -49 39 20 15z m-199 -98 c1 -20
-3 -40 -9 -43 -6 -4 -10 17 -9 57 0 68 17 56 18 -14z m-706 55 c-18 -2 -48 -2
-65 0 -18 2 -4 4 32 4 36 0 50 -2 33 -4z m100 0 c-7 -2 -19 -2 -25 0 -7 3 -2
5 12 5 14 0 19 -2 13 -5z m80 0 c-7 -2 -19 -2 -25 0 -7 3 -2 5 12 5 14 0 19
-2 13 -5z m672 -43 c3 -5 1 -10 -4 -10 -6 0 -11 5 -11 10 0 6 2 10 4 10 3 0 8
-4 11 -10z m-7655 -50 c6 -11 8 -20 6 -20 -3 0 -10 9 -16 20 -6 11 -8 20 -6
20 3 0 10 -9 16 -20z m-1234 -6 c-3 -9 -6 -26 -6 -38 0 -18 -10 -27 -42 -39
-23 -9 -44 -15 -46 -12 -3 3 0 5 7 5 7 0 9 5 6 10 -3 6 -17 10 -30 10 -37 0
-21 27 34 55 55 29 86 32 77 9z m1641 -210 c-3 -3 -12 -4 -19 -1 -8 3 -5 6 6
6 11 1 17 -2 13 -5z m143 -72 c0 -36 -2 -40 -39 -50 -46 -14 -149 -16 -115 -2
12 5 35 7 50 5 28 -3 84 22 84 37 0 14 -20 8 -26 -7 -9 -22 -24 -18 -24 5 0
15 9 22 30 27 17 3 30 9 30 14 0 5 2 9 5 9 3 0 5 -17 5 -38z m6740 3 c10 -5
43 -26 72 -46 29 -19 69 -40 88 -46 l35 -11 -32 -1 c-31 -1 -31 -1 -37 -63 -7
-81 -4 -107 14 -118 30 -18 2 -20 -52 -2 -30 10 -73 33 -96 52 -48 38 -56 66
-50 165 2 36 0 65 -4 65 -5 0 -3 9 4 19 10 16 15 17 26 8 8 -6 22 -16 32 -22z
m-6820 -35 c0 -5 -7 -7 -15 -4 -8 4 -15 8 -15 10 0 2 7 4 15 4 8 0 15 -4 15
-10z m-103 -16 c-3 -3 -12 -4 -19 -1 -8 3 -5 6 6 6 11 1 17 -2 13 -5z m7240
-56 c-2 -13 -4 -3 -4 22 0 25 2 35 4 23 2 -13 2 -33 0 -45z m590 -215 c-3 -10
-5 -4 -5 12 0 17 2 24 5 18 2 -7 2 -21 0 -30z m-1734 10 c-7 -2 -19 -2 -25 0
-7 3 -2 5 12 5 14 0 19 -2 13 -5z m-153 -12 c0 -5 -9 -7 -20 -4 -11 3 -20 7
-20 9 0 2 9 4 20 4 11 0 20 -4 20 -9z m317 3 c-3 -3 -12 -4 -19 -1 -8 3 -5 6
6 6 11 1 17 -2 13 -5z m-109 -11 c-10 -2 -26 -2 -35 0 -10 3 -2 5 17 5 19 0
27 -2 18 -5z m-6468 -68 c-7 -8 -17 -15 -23 -15 -6 0 -2 7 9 15 25 19 30 19
14 0z m7338 -160 c-3 -3 -9 2 -12 12 -6 14 -5 15 5 6 7 -7 10 -15 7 -18z
m-8610 -1194 c8 -10 12 -48 12 -108 0 -51 3 -93 6 -93 5 0 51 24 73 38 3 1 -4
9 -16 17 -21 15 -50 72 -40 81 3 3 23 -4 45 -15 26 -13 43 -31 51 -51 17 -51
-6 -88 -78 -125 -28 -14 -38 -15 -62 -4 -17 6 -34 20 -39 30 -11 20 -14 252
-3 262 7 7 30 -8 51 -32z"/>
<path d="M5350 8812 c-33 -34 -44 -88 -38 -193 3 -65 6 -74 36 -100 35 -31 86
-39 124 -18 50 27 77 184 44 263 -31 74 -115 98 -166 48z"/>
<path d="M4058 8726 c-2 -86 -1 -114 1 -195 l1 -34 88 6 c102 6 119 11 128 40
14 44 7 143 -14 191 -25 54 -55 71 -144 78 l-58 5 -2 -91z"/>
<path d="M7233 8820 c-49 -30 -66 -63 -71 -143 -5 -88 12 -138 60 -167 61 -37
132 -18 162 44 23 48 31 145 17 189 -15 46 -73 97 -109 97 -15 0 -41 -9 -59
-20z"/>
<path d="M8207 8750 c-10 -74 -21 -148 -24 -165 -4 -22 -2 -27 6 -19 13 12 43
231 39 283 -2 21 -11 -20 -21 -99z"/>
<path d="M7926 8838 c-3 -13 -12 -90 -21 -173 -8 -82 -18 -163 -21 -180 -3
-21 -2 -26 5 -15 7 13 17 79 45 300 2 19 7 47 10 63 4 15 2 27 -4 27 -5 0 -12
-10 -14 -22z"/>
<path d="M8125 8705 c3 -33 14 -103 24 -155 17 -90 19 -93 26 -57 5 26 2 54
-9 90 -9 29 -23 81 -31 117 l-15 65 5 -60z"/>
<path d="M2465 6720 c3 -5 11 -10 16 -10 6 0 7 5 4 10 -3 6 -11 10 -16 10 -6
0 -7 -4 -4 -10z"/>
<path d="M2344 6706 c-10 -8 -16 -18 -11 -22 4 -4 7 -2 7 4 0 7 7 12 15 12 8
0 15 5 15 10 0 13 -3 13 -26 -4z"/>
<path d="M2363 6610 c0 -25 2 -35 4 -22 2 12 2 32 0 45 -2 12 -4 2 -4 -23z"/>
<path d="M2358 6493 c-2 -5 -1 -28 3 -53 l6 -45 1 53 c2 48 -2 63 -10 45z"/>
<path d="M2362 6253 l2 -68 3 58 c2 31 8 57 13 57 6 0 10 5 10 10 0 6 -7 10
-15 10 -12 0 -15 -13 -13 -67z"/>
<path d="M3320 6270 c-33 -51 -37 -76 -8 -43 15 17 51 93 44 93 -2 0 -18 -23
-36 -50z"/>
<path d="M3406 6255 c-9 -26 -7 -32 5 -12 6 10 9 21 6 23 -2 3 -7 -2 -11 -11z"/>
<path d="M2898 6253 c7 -3 16 -2 19 1 4 3 -2 6 -13 5 -11 0 -14 -3 -6 -6z"/>
<path d="M2390 5990 c0 -5 7 -10 16 -10 8 0 12 5 9 10 -3 6 -10 10 -16 10 -5
0 -9 -4 -9 -10z"/>
<path d="M6650 6510 c8 -5 24 -10 34 -10 26 0 18 6 -19 14 -22 5 -26 4 -15 -4z"/>
<path d="M5438 5643 c7 -3 16 -2 19 1 4 3 -2 6 -13 5 -11 0 -14 -3 -6 -6z"/>
<path d="M3323 5435 c-3 -9 -3 -18 -1 -21 3 -3 8 4 11 16 6 23 -1 27 -10 5z"/>
<path d="M3221 5134 c0 -11 3 -14 6 -6 3 7 2 16 -1 19 -3 4 -6 -2 -5 -13z"/>
<path d="M3001 5075 c1 -36 6 -65 11 -65 4 0 8 29 8 65 0 39 -4 65 -11 65 -6
0 -9 -25 -8 -65z"/>
<path d="M3227 5477 c-4 -10 -7 -28 -7 -40 1 -20 2 -20 11 -4 6 10 9 28 7 40
-3 20 -4 20 -11 4z"/>
<path d="M4410 3729 c0 -5 5 -7 10 -4 6 3 10 8 10 11 0 2 -4 4 -10 4 -5 0 -10
-5 -10 -11z"/>
<path d="M1950 3890 c8 -5 20 -10 25 -10 6 0 3 5 -5 10 -8 5 -19 10 -25 10 -5
0 -3 -5 5 -10z"/>
<path d="M5020 3856 c0 -2 9 -6 20 -9 11 -3 18 -1 14 4 -5 9 -34 13 -34 5z"/>
<path d="M5050 3811 c0 -8 -7 -11 -15 -7 -8 3 -15 1 -15 -3 0 -5 7 -12 15 -15
16 -6 33 19 21 31 -3 4 -6 1 -6 -6z"/>
<path d="M4962 3775 c0 -16 2 -22 5 -12 2 9 2 23 0 30 -3 6 -5 -1 -5 -18z"/>
<path d="M8005 3929 c-4 -6 -4 -13 -1 -16 3 -4 6 -1 6 5 0 7 7 12 16 12 14 0
14 -3 4 -15 -8 -10 -9 -15 -2 -15 6 0 16 9 22 20 9 17 8 20 -14 20 -14 0 -28
-5 -31 -11z"/>
<path d="M5553 3483 c20 -2 54 -2 75 0 20 2 3 4 -38 4 -41 0 -58 -2 -37 -4z"/>
<path d="M6088 3483 c7 -3 16 -2 19 1 4 3 -2 6 -13 5 -11 0 -14 -3 -6 -6z"/>
<path d="M7633 3483 c20 -2 54 -2 75 0 20 2 3 4 -38 4 -41 0 -58 -2 -37 -4z"/>
<path d="M5598 3373 c6 -2 18 -2 25 0 6 3 1 5 -13 5 -14 0 -19 -2 -12 -5z"/>
<path d="M6440 3680 c0 -6 7 -10 15 -10 8 0 15 2 15 4 0 2 -7 6 -15 10 -8 3
-15 1 -15 -4z"/>
<path d="M8300 2900 c19 -13 30 -13 30 0 0 6 -10 10 -22 10 -19 0 -20 -2 -8
-10z"/>
<path d="M3873 2983 c-13 -2 -23 -10 -23 -17 0 -9 9 -12 25 -8 l25 4 2 -213
c2 -278 1 -264 18 -264 12 0 16 26 18 150 2 83 1 196 -3 253 -7 109 -5 106
-62 95z"/>
<path d="M3861 2894 c0 -11 3 -14 6 -6 3 7 2 16 -1 19 -3 4 -6 -2 -5 -13z"/>
<path d="M5542 2800 c0 -14 2 -19 5 -12 2 6 2 18 0 25 -3 6 -5 1 -5 -13z"/>
<path d="M3857 2718 c-9 -112 -9 -228 1 -228 4 0 8 70 9 155 2 85 1 155 -1
155 -1 0 -6 -37 -9 -82z"/>
<path d="M4190 2560 l0 -80 33 0 c21 0 28 3 19 9 -10 6 -13 28 -10 80 3 68 2
71 -19 71 -22 0 -23 -4 -23 -80z"/>
<path d="M4695 2700 c-3 -5 1 -10 9 -10 9 0 16 5 16 10 0 6 -4 10 -9 10 -6 0
-13 -4 -16 -10z"/>
<path d="M9268 2483 c7 -3 16 -2 19 1 4 3 -2 6 -13 5 -11 0 -14 -3 -6 -6z"/>
<path d="M9130 7885 c-268 -188 -268 -188 -322 -196 -29 -4 -386 -9 -793 -11
l-740 -3 565 -5 c311 -3 666 -3 790 0 124 3 233 2 243 -3 20 -9 56 6 38 17 -6
4 -11 12 -11 17 0 6 5 7 10 4 6 -3 13 1 16 9 3 9 11 13 18 9 6 -3 8 -3 4 2 -7
7 132 105 150 105 6 0 12 7 16 15 3 8 15 15 26 15 12 0 19 4 16 9 -4 5 16 26
44 46 27 20 50 39 50 41 0 11 -23 -3 -120 -71z"/>
<path d="M9305 7908 c-11 -6 -38 -21 -60 -33 -22 -13 -44 -23 -49 -23 -5 0
-12 -5 -15 -10 -3 -5 -20 -18 -37 -28 -17 -11 -56 -36 -88 -56 -31 -21 -72
-45 -92 -53 -46 -19 -40 -28 10 -14 34 9 265 145 332 196 32 23 31 38 -1 21z"/>
<path d="M677 7889 c7 -7 15 -10 18 -7 3 3 -2 9 -12 12 -14 6 -15 5 -6 -5z"/>
<path d="M9413 7893 c9 -2 23 -2 30 0 6 3 -1 5 -18 5 -16 0 -22 -2 -12 -5z"/>
<path d="M9525 7870 c39 -10 75 -19 80 -19 22 1 -64 27 -105 33 -34 4 -27 1
25 -14z"/>
<path d="M9607 7824 c-36 -19 -101 -64 -94 -64 3 0 39 18 79 40 40 22 66 40
58 39 -8 0 -27 -7 -43 -15z"/>
<path d="M243 7813 c-13 -2 -23 -7 -23 -11 0 -6 438 -214 464 -220 17 -4 -216
111 -322 159 -65 30 -89 45 -80 51 8 6 4 7 -12 3 -24 -6 -24 -5 -6 9 20 16 19
17 -21 9z"/>
<path d="M970 7736 c0 -3 15 -13 32 -22 29 -15 31 -18 13 -24 -25 -9 248 -20
439 -18 126 1 108 2 -112 9 -273 9 -269 8 -364 57 -5 2 -8 1 -8 -2z"/>
<path d="M1733 7673 c32 -2 81 -2 110 0 29 2 3 3 -58 3 -60 0 -84 -1 -52 -3z"/>
<path d="M2068 7673 c83 -2 221 -2 305 0 83 1 15 3 -153 3 -168 0 -236 -2
-152 -3z"/>
<path d="M2943 7673 c76 -2 198 -2 270 0 73 1 11 3 -138 3 -148 0 -208 -2
-132 -3z"/>
<path d="M4297 7673 c518 -2 1368 -2 1890 0 521 1 98 2 -942 2 -1039 0 -1466
-1 -948 -2z"/>
<path d="M700 7575 c0 -7 81 -47 86 -43 2 3 -17 14 -41 26 -25 12 -45 20 -45
17z"/>
<path d="M829 7509 c18 -11 35 -18 38 -15 5 5 -50 36 -64 36 -4 0 7 -9 26 -21z"/>
<path d="M1160 7430 c0 -5 5 -10 10 -10 6 0 10 5 10 10 0 6 -4 10 -10 10 -5 0
-10 -4 -10 -10z"/>
<path d="M1941 7424 c0 -11 3 -14 6 -6 3 7 2 16 -1 19 -3 4 -6 -2 -5 -13z"/>
<path d="M1204 6100 c0 -168 2 -236 3 -152 2 83 2 221 0 305 -1 83 -3 15 -3
-153z"/>
<path d="M8343 5920 c0 -47 2 -66 4 -42 2 23 2 61 0 85 -2 23 -4 4 -4 -43z"/>
<path d="M18 5763 c12 -2 32 -2 45 0 12 2 2 4 -23 4 -25 0 -35 -2 -22 -4z"/>
<path d="M228 5699 l-3 -62 -112 2 c-74 1 -113 -2 -113 -8 0 -7 40 -11 110
-11 61 0 110 -3 110 -8 0 -4 -49 -6 -110 -4 l-110 4 0 -71 0 -71 104 0 104 0
4 -61 c1 -33 0 -69 -4 -80 -6 -15 -3 -19 12 -19 19 0 20 8 20 225 0 215 -6
293 -12 164z"/>
<path d="M52 5703 c32 -2 84 -2 115 0 32 2 6 3 -57 3 -63 0 -89 -1 -58 -3z"/>
<path d="M1624 5390 c0 -63 1 -89 3 -57 2 31 2 83 0 115 -2 31 -3 5 -3 -58z"/>
<path d="M30 5390 c-24 -5 -4 -8 68 -9 62 0 102 3 102 9 0 11 -116 11 -170 0z"/>
<path d="M80 5330 l-85 -6 82 -2 c45 -1 89 -5 99 -9 11 -4 15 -3 11 4 -4 6 -1
14 5 16 15 6 8 6 -112 -3z"/>
<path d="M155 5280 l-60 -7 63 -1 c48 -2 62 -5 62 -17 0 -8 5 -15 10 -15 6 0
10 11 10 25 0 14 -5 24 -12 23 -7 -1 -40 -4 -73 -8z"/>
<path d="M13 5263 c9 -2 25 -2 35 0 9 3 1 5 -18 5 -19 0 -27 -2 -17 -5z"/>
<path d="M230 5215 c0 -12 -19 -15 -115 -15 l-115 0 0 -29 c0 -17 5 -33 11
-37 7 -4 60 -10 118 -14 l106 -7 -102 -1 c-119 -2 -133 -6 -133 -38 0 -24 0
-24 92 -18 67 4 89 3 78 -5 -8 -6 -36 -11 -61 -11 -26 0 -61 -3 -78 -6 -26 -5
-31 -11 -31 -35 0 -18 6 -29 18 -32 16 -4 16 -5 0 -6 -11 -1 -18 -9 -18 -22 0
-20 3 -20 82 -13 46 4 92 8 103 8 33 1 33 -18 0 -25 l-30 -7 28 -1 c15 0 27
-5 27 -11 0 -5 -7 -7 -15 -4 -20 8 -31 -22 -15 -41 11 -13 7 -15 -22 -15 -68
0 -158 -13 -158 -23 0 -6 38 -7 106 -3 l106 7 -4 -23 c-2 -18 -10 -24 -38 -27
l-35 -4 30 -7 c26 -7 24 -8 -20 -10 -27 -1 -72 -6 -100 -10 -36 -6 -19 -7 56
-3 l106 5 7 -28 c5 -20 3 -30 -8 -36 -13 -7 -13 -11 5 -29 11 -11 19 -23 16
-25 -2 -3 -46 -11 -98 -20 -102 -16 -133 -23 -126 -30 4 -4 115 13 205 32 l32
7 0 313 c0 173 -2 314 -5 314 -3 0 -5 -7 -5 -15z m-73 -81 c-3 -3 -12 -4 -19
-1 -8 3 -5 6 6 6 11 1 17 -2 13 -5z m-84 -51 c-7 -2 -19 -2 -25 0 -7 3 -2 5
12 5 14 0 19 -2 13 -5z"/>
<path d="M88 4753 c6 -2 18 -2 25 0 6 3 1 5 -13 5 -14 0 -19 -2 -12 -5z"/>
<path d="M28 4743 c6 -2 18 -2 25 0 6 3 1 5 -13 5 -14 0 -19 -2 -12 -5z"/>
<path d="M133 4653 c9 -2 25 -2 35 0 9 3 1 5 -18 5 -19 0 -27 -2 -17 -5z"/>
<path d="M53 4643 c9 -2 23 -2 30 0 6 3 -1 5 -18 5 -16 0 -22 -2 -12 -5z"/>
<path d="M230 4570 c-5 -25 -34 -38 -200 -92 -24 -8 -30 -13 -17 -16 9 -2 39
3 65 12 59 18 145 36 151 30 9 -9 -10 -16 -100 -34 -138 -28 -129 -20 -129
-111 0 -69 2 -79 18 -79 16 0 89 18 140 34 19 6 22 4 22 -18 0 -14 -6 -26 -12
-27 -7 0 -4 -5 7 -10 16 -7 14 -8 -9 -4 -16 3 -60 0 -97 -7 -69 -12 -69 -12
-69 -45 0 -36 5 -38 60 -24 19 5 59 12 88 16 47 6 52 5 52 -12 0 -15 -13 -21
-72 -31 -123 -22 -128 -23 -128 -37 0 -14 4 -13 120 20 68 19 80 19 80 0 0
-15 -31 -25 -137 -46 -35 -6 -63 -16 -63 -20 0 -14 78 -10 145 6 72 17 85 18
65 4 -11 -8 -12 -12 -2 -16 6 -2 12 -17 12 -32 0 -29 5 -27 -153 -67 l-68 -17
2 -88 c1 -49 5 -86 10 -83 5 3 42 -2 83 -11 41 -8 78 -15 81 -15 3 0 5 -9 5
-20 0 -27 -27 -26 -100 5 -33 14 -64 25 -70 25 -7 0 -10 -21 -8 -57 3 -53 5
-57 33 -66 17 -4 37 -11 45 -14 15 -6 28 -8 64 -11 33 -3 4 -20 -44 -26 -25
-3 -57 -5 -72 -5 -16 -1 -28 -6 -28 -12 0 -8 15 -9 48 -5 26 4 66 9 90 13 76
10 42 -23 -43 -42 -16 -4 -45 -13 -62 -22 -28 -13 -33 -21 -33 -49 0 -19 3
-34 6 -34 4 0 27 11 53 24 25 14 63 32 83 40 36 14 38 14 38 -5 0 -12 -9 -34
-21 -50 l-20 -29 25 0 c14 0 28 -5 31 -11 11 -17 -22 -45 -98 -84 -70 -36
-128 -77 -82 -58 11 5 54 25 97 46 42 20 79 37 82 37 3 0 6 -11 6 -24 0 -20
-15 -32 -101 -76 -55 -28 -98 -54 -95 -57 3 -3 48 16 100 42 52 26 99 45 104
41 30 -18 32 26 30 675 -2 360 -5 643 -8 629z m-65 -1039 c-6 -6 -27 -17 -47
-25 -29 -12 -38 -13 -44 -3 -4 6 -4 9 0 6 4 -4 24 2 44 12 41 20 62 25 47 10z"/>
<path d="M1386 4525 c18 -94 25 -155 34 -290 6 -82 15 -165 20 -183 5 -18 31
-68 59 -112 54 -83 103 -190 142 -305 12 -38 26 -74 31 -80 13 -15 9 25 -7 79
-16 51 -13 76 4 35 10 -24 56 -93 49 -74 -16 47 -145 283 -181 332 -73 98 -87
134 -98 242 -25 257 -31 301 -44 342 -8 24 -12 31 -9 14z"/>
<path d="M40 4512 c-25 -9 -38 -18 -30 -19 20 -5 96 22 84 29 -5 3 -29 -2 -54
-10z"/>
<path d="M125 4054 c-38 -14 -39 -14 -6 -9 18 3 42 5 53 5 10 0 16 5 13 10 -7
12 -9 12 -60 -6z"/>
<path d="M8 4033 c7 -3 16 -2 19 1 4 3 -2 6 -13 5 -11 0 -14 -3 -6 -6z"/>
<path d="M1758 3776 c-10 -11 -18 -24 -18 -30 0 -17 157 -163 206 -192 62 -37
136 -52 282 -60 102 -6 122 -5 122 7 0 8 9 22 20 32 24 20 27 79 6 100 -10 10
-51 17 -129 22 -99 6 -127 12 -198 42 -46 19 -110 43 -141 55 -32 11 -58 24
-58 29 0 4 -7 5 -17 2 -10 -4 -14 -2 -10 4 12 19 -46 9 -65 -11z m380 -153
c-10 -2 -28 -2 -40 0 -13 2 -5 4 17 4 22 1 32 -1 23 -4z m-143 -40 c-19 -14
-17 -15 29 -9 27 3 105 9 175 12 69 3 132 7 139 9 23 8 12 -16 -13 -25 -36
-14 -349 -14 -374 0 -26 13 -28 23 -3 16 9 -3 24 -1 32 4 25 16 37 11 15 -7z
m155 -53 c34 -11 -63 -11 -105 0 -25 6 -20 8 25 8 30 0 66 -4 80 -8z m80 0 c0
-5 -5 -10 -11 -10 -5 0 -7 5 -4 10 3 6 8 10 11 10 2 0 4 -4 4 -10z m45 0 c3
-5 1 -10 -4 -10 -6 0 -11 5 -11 10 0 6 2 10 4 10 3 0 8 -4 11 -10z"/>
<path d="M3128 3643 c7 -3 16 -2 19 1 4 3 -2 6 -13 5 -11 0 -14 -3 -6 -6z"/>
<path d="M2740 3632 c-6 -2 -10 -16 -10 -31 l0 -28 107 -6 c58 -4 220 -7 360
-7 l253 0 0 30 c0 17 -6 33 -12 35 -15 5 -683 12 -698 7z"/>
<path d="M2832 3484 c3 -3 167 -7 364 -9 209 -2 332 0 294 5 -73 9 -666 13
-658 4z"/>
<path d="M2500 3470 c117 -11 278 -11 285 0 4 7 -57 9 -177 8 -143 -1 -167 -3
-108 -8z"/>
<path d="M3653 3473 c43 -2 110 -2 150 0 40 1 5 3 -78 3 -82 0 -115 -2 -72 -3z"/>
<path d="M2943 3453 c54 -2 139 -2 190 0 51 1 7 3 -98 3 -104 0 -146 -2 -92
-3z"/>
<path d="M2227 3444 c-3 -4 -2 -15 4 -25 13 -25 106 -28 116 -3 3 9 0 20 -8
25 -16 10 -102 12 -112 3z"/>
<path d="M4488 3443 c17 -2 47 -2 65 0 17 2 3 4 -33 4 -36 0 -50 -2 -32 -4z"/>
<path d="M66 3407 c-65 -36 -90 -67 -29 -36 20 10 47 19 60 19 12 0 25 5 29
11 4 8 0 9 -15 4 -30 -9 -26 2 7 19 15 8 23 15 17 15 -5 1 -37 -14 -69 -32z"/>
<path d="M4015 3390 c-290 -5 -284 -6 164 -8 461 -2 603 2 296 9 -88 2 -295 2
-460 -1z"/>
<path d="M2808 3383 c7 -3 16 -2 19 1 4 3 -2 6 -13 5 -11 0 -14 -3 -6 -6z"/>
<path d="M3053 3383 c20 -2 54 -2 75 0 20 2 3 4 -38 4 -41 0 -58 -2 -37 -4z"/>
<path d="M3218 3383 c12 -2 32 -2 45 0 12 2 2 4 -23 4 -25 0 -35 -2 -22 -4z"/>
<path d="M3458 3383 c12 -2 30 -2 40 0 9 3 -1 5 -23 4 -22 0 -30 -2 -17 -4z"/>
<path d="M54 3354 c-18 -14 -18 -15 4 -4 12 6 22 13 22 15 0 8 -5 6 -26 -11z"/>
<path d="M5 3330 c-3 -6 1 -7 9 -4 18 7 21 14 7 14 -6 0 -13 -4 -16 -10z"/>
<path d="M2508 3003 c7 -3 16 -2 19 1 4 3 -2 6 -13 5 -11 0 -14 -3 -6 -6z"/>
<path d="M1988 2943 c7 -3 16 -2 19 1 4 3 -2 6 -13 5 -11 0 -14 -3 -6 -6z"/>
<path d="M2043 2933 c9 -2 23 -2 30 0 6 3 -1 5 -18 5 -16 0 -22 -2 -12 -5z"/>
<path d="M2143 2923 c9 -2 25 -2 35 0 9 3 1 5 -18 5 -19 0 -27 -2 -17 -5z"/>
<path d="M8138 1773 c7 -3 16 -2 19 1 4 3 -2 6 -13 5 -11 0 -14 -3 -6 -6z"/>
</g>
</svg>
